<svg id="icons" height="512" viewBox="0 0 48 48" width="512" xmlns="http://www.w3.org/2000/svg"><g fill="rgb(0,0,0)"><path d="m14 6h-7a2 2 0 0 0 -2 2v7a2 2 0 0 0 2 2h7a2 2 0 0 0 2-2v-7a2 2 0 0 0 -2-2zm0 9h-7v-7h7z"></path><path d="m41 6h-21a2 2 0 0 0 -2 2v7a2 2 0 0 0 2 2h21a2 2 0 0 0 2-2v-7a2 2 0 0 0 -2-2zm0 9h-21v-7h21z"></path><path d="m14 19h-7a2 2 0 0 0 -2 2v7a2 2 0 0 0 2 2h7a2 2 0 0 0 2-2v-7a2 2 0 0 0 -2-2zm0 9h-7v-7h7z"></path><path d="m41 19h-21a2 2 0 0 0 -2 2v7a2 2 0 0 0 2 2h21a2 2 0 0 0 2-2v-7a2 2 0 0 0 -2-2zm0 9h-21v-7h21z"></path><path d="m14 32h-7a2 2 0 0 0 -2 2v7a2 2 0 0 0 2 2h7a2 2 0 0 0 2-2v-7a2 2 0 0 0 -2-2zm0 9h-7v-7h7z"></path><path d="m41 32h-21a2 2 0 0 0 -2 2v7a2 2 0 0 0 2 2h21a2 2 0 0 0 2-2v-7a2 2 0 0 0 -2-2zm0 9h-21v-7h21z"></path></g></svg>